<svg width="36" height="36" viewBox="0 0 36 36" fill="none" xmlns="http://www.w3.org/2000/svg">
<path d="M24 31.5V28.5C24 26.9087 23.3679 25.3826 22.2426 24.2574C21.1174 23.1321 19.5913 22.5 18 22.5H9C7.4087 22.5 5.88258 23.1321 4.75736 24.2574C3.63214 25.3826 3 26.9087 3 28.5V31.5" stroke="#EC4D38" stroke-width="3" stroke-linecap="round" stroke-linejoin="round"/>
<path d="M13.5 16.5C16.8137 16.5 19.5 13.8137 19.5 10.5C19.5 7.18629 16.8137 4.5 13.5 4.5C10.1863 4.5 7.5 7.18629 7.5 10.5C7.5 13.8137 10.1863 16.5 13.5 16.5Z" stroke="#EC4D38" stroke-width="3" stroke-linecap="round" stroke-linejoin="round"/>
<path d="M33 31.4999V28.4999C32.999 27.1705 32.5565 25.8791 31.742 24.8284C30.9276 23.7777 29.7872 23.0273 28.5 22.6949" stroke="#EC4D38" stroke-width="3" stroke-linecap="round" stroke-linejoin="round"/>
<path d="M24 4.69495C25.2906 5.0254 26.4346 5.776 27.2515 6.82841C28.0684 7.88083 28.5118 9.17519 28.5118 10.5074C28.5118 11.8397 28.0684 13.1341 27.2515 14.1865C26.4346 15.2389 25.2906 15.9895 24 16.3199" stroke="#EC4D38" stroke-width="3" stroke-linecap="round" stroke-linejoin="round"/>
</svg>
